<?xml version="1.0" standalone="no"?>
<!DOCTYPE svg PUBLIC "-//W3C//DTD SVG 20010904//EN"
 "http://www.w3.org/TR/2001/REC-SVG-20010904/DTD/svg10.dtd">
<svg version="1.0" xmlns="http://www.w3.org/2000/svg"
 width="604.000000pt" height="720.000000pt" viewBox="0 0 604.000000 720.000000"
 preserveAspectRatio="xMidYMid meet">

<g transform="translate(0.000000,720.000000) scale(0.100000,-0.100000)"
fill="#000000" stroke="none">
<path d="M5095 7185 c-291 -53 -521 -265 -596 -550 -28 -110 -29 -271 0 -378
41 -155 144 -312 263 -402 218 -164 482 -204 727 -112 463 174 634 739 346
1142 -113 159 -283 264 -485 301 -92 16 -163 16 -255 -1z"/>
<path d="M492 6750 c-228 -61 -408 -242 -468 -470 -23 -86 -23 -235 -1 -320
32 -122 82 -207 176 -301 134 -134 273 -192 461 -192 178 1 332 64 455 188 80
81 125 152 163 257 23 64 26 88 26 203 1 117 -2 138 -27 210 -16 44 -44 106
-63 137 -74 122 -213 231 -354 278 -95 32 -269 37 -368 10z"/>
<path d="M2861 5794 c-169 -45 -312 -190 -350 -354 -15 -65 -13 -167 4 -235
22 -84 62 -152 125 -215 95 -96 203 -140 341 -140 250 0 457 190 476 437 11
143 -31 264 -128 367 -122 130 -303 185 -468 140z"/>
<path d="M5120 5320 c-185 -26 -388 -89 -575 -180 -142 -69 -219 -118 -422
-271 -347 -261 -660 -416 -958 -476 -110 -22 -388 -24 -480 -5 -102 22 -257
73 -318 104 -87 43 -80 28 10 -25 420 -246 888 -248 1427 -6 126 57 308 161
471 269 340 225 649 330 967 330 186 0 301 -34 387 -115 87 -81 112 -178 99
-378 -13 -210 -72 -397 -270 -862 -185 -432 -305 -816 -392 -1255 -63 -315
-86 -514 -106 -905 -27 -546 -69 -845 -142 -1018 -52 -125 -151 -237 -207
-237 -105 0 -199 213 -281 635 -118 613 -279 991 -526 1241 -206 210 -443 287
-686 225 -149 -38 -327 -149 -458 -287 -63 -66 -64 -66 -15 -27 119 95 243
166 370 211 96 33 256 42 341 17 198 -57 365 -219 497 -481 111 -222 180 -488
247 -964 34 -242 65 -382 110 -498 75 -195 178 -305 324 -347 230 -66 488 153
607 517 69 213 106 463 144 993 34 473 58 646 141 1015 79 350 171 641 309
980 174 427 215 544 259 740 68 309 56 558 -36 733 -48 92 -165 205 -258 250
-115 57 -212 78 -375 82 -77 2 -169 0 -205 -5z"/>
<path d="M830 4955 c-167 -46 -303 -162 -384 -325 -25 -52 -58 -140 -73 -195
-25 -93 -27 -115 -27 -310 0 -236 12 -315 79 -519 69 -208 110 -289 389 -781
220 -386 356 -671 445 -929 72 -209 106 -382 156 -791 58 -481 113 -694 220
-855 57 -86 110 -133 195 -173 55 -26 80 -32 158 -35 78 -4 103 -1 155 18 189
69 328 243 432 540 67 193 93 319 146 694 34 248 59 354 105 455 44 96 89 149
155 186 46 26 65 30 129 30 103 0 163 -29 271 -132 64 -60 78 -70 63 -44 -39
69 -153 179 -218 211 -199 98 -409 1 -531 -245 -49 -101 -86 -220 -144 -473
-91 -394 -155 -581 -255 -753 -137 -233 -303 -296 -410 -156 -77 101 -123 307
-161 727 -49 545 -93 757 -226 1096 -102 261 -239 525 -559 1079 -220 380
-300 639 -287 931 18 421 225 581 573 441 122 -50 227 -117 477 -306 263 -198
355 -260 482 -324 174 -87 327 -128 549 -147 363 -31 770 75 967 251 l44 40
-45 -27 c-286 -173 -738 -207 -1140 -87 -214 64 -353 152 -646 409 -286 252
-399 336 -559 417 -139 69 -211 88 -350 93 -87 3 -135 0 -175 -11z"/>
</g>
</svg>
